<svg    overflow="visible"  viewBox="0 0 2094 396.002" fill="none" xmlns="http://www.w3.org/2000/svg">
<g id="lighter" filter="url(#filter0_f_0_41)">
<path d="M131.579 226.889C130.819 224.719 135.103 210.788 165.514 183.389C197.43 154.635 253.35 140.242 286.769 132.678C300.073 129.667 316.65 132.548 379.283 139.954C435.443 146.594 544.452 156.196 606.07 160.323C678.016 165.141 699.233 159.609 715.523 160.239C734.557 160.974 774.61 173.424 834.316 188.104C877.334 198.681 942.419 186.424 993.479 177.963C1055.07 167.756 1111.43 167.72 1157.66 171.884C1221.86 177.667 1270.08 201.66 1316.34 207.761C1368.64 214.659 1435.16 206.303 1521.74 193.907C1538.44 191.516 1543.81 191.266 1548.85 191.263C1569.38 191.253 1600.2 205.101 1632.69 213.172C1664.31 221.027 1729.46 210.699 1842.7 194.876C1865.61 191.674 1873.86 191.461 1880.81 191.852C1887.75 192.243 1893.38 193.42 1897.85 196.156C1913.92 219.544 1932.01 251.393 1949.09 261.547C1953.56 263.11 1957.96 263.795 1962.5 264.5" stroke="#E20349" stroke-width="23" stroke-linecap="round"/>
</g>
<defs>
<filter id="filter0_f_0_41" x="0" y="7.62939e-06" width="2094" height="396.002" filterUnits="userSpaceOnUse" color-interpolation-filters="sRGB">
<feFlood flood-opacity="0" result="BackgroundImageFix"/>
<feBlend mode="normal" in="SourceGraphic" in2="BackgroundImageFix" result="shape"/>
<feGaussianBlur stdDeviation="60" result="effect1_foregroundBlur_0_41"/>
</filter>
</defs>
</svg>
