<svg xmlns="http://www.w3.org/2000/svg" width="1856" height="184" viewBox="0 0 1856 184" fill="none">
  <g filter="url(#filter0_f_2302_586)">
    <path d="M25.5785 226.889C24.8184 224.719 29.1032 210.788 59.514 183.389C91.4294 154.635 147.349 140.242 180.768 132.678C194.073 129.667 210.65 132.548 273.283 139.954C329.443 146.594 438.452 156.196 500.069 160.323C572.016 165.141 593.232 159.609 609.523 160.239C628.556 160.974 668.61 173.424 728.316 188.104C771.334 198.681 836.418 186.424 887.478 177.963C949.07 167.756 1005.43 167.72 1051.66 171.884C1115.86 177.667 1164.08 201.66 1210.34 207.761C1262.64 214.659 1329.16 206.303 1415.74 193.907C1432.44 191.516 1437.81 191.266 1442.85 191.263C1463.38 191.253 1494.2 205.101 1526.69 213.172C1558.31 221.027 1623.46 210.699 1736.7 194.876C1759.61 191.674 1767.86 191.461 1774.81 191.852C1781.75 192.243 1787.38 193.42 1791.85 196.156C1807.92 219.544 1826.01 251.393 1843.09 261.547C1847.56 263.11 1851.96 263.795 1856.5 264.5" stroke="#E20349" stroke-width="23" stroke-linecap="round"/>
  </g>
  <defs>
    <filter id="filter0_f_2302_586" x="-106" y="0" width="2094" height="396.002" filterUnits="userSpaceOnUse" color-interpolation-filters="sRGB">
      <feFlood flood-opacity="0" result="BackgroundImageFix"/>
      <feBlend mode="normal" in="SourceGraphic" in2="BackgroundImageFix" result="shape"/>
      <feGaussianBlur stdDeviation="60" result="effect1_foregroundBlur_2302_586"/>
    </filter>
  </defs>
</svg>
