<svg xmlns="http://www.w3.org/2000/svg" width="17" height="20" viewBox="0 0 17 20" fill="none">
  <path d="M0 10.1742C0.00151971 10.1697 0.00303943 10.1652 0.00455914 10.1607C0.0556883 9.73992 0.115662 9.34892 0.210661 8.93433C0.780454 6.44772 3.02212 4.50063 5.64662 4.76757C5.93157 4.79656 6.23362 4.89746 6.51047 4.97302C6.98702 5.10179 8.19402 5.63588 8.63363 5.61565C9.3883 5.52262 10.1174 5.12772 10.8485 4.92958C11.2532 4.81988 11.7009 4.70135 12.1134 4.68767C13.7952 4.63189 15.4898 5.31608 16.4614 6.70784C15.4198 7.34111 14.6236 8.20515 14.333 9.42113C13.8162 11.5835 14.8281 13.6909 16.8386 14.6316C16.8851 14.6533 16.9582 14.6863 17 14.7137V14.7299C16.9465 14.8001 16.7551 15.362 16.7013 15.4937C16.6052 15.7223 16.5018 15.9479 16.3914 16.17C15.9326 17.1018 15.3212 17.9797 14.6501 18.7709C14.2174 19.2812 13.6928 19.7334 13.0527 19.9522C13.0273 19.9608 12.9656 19.9849 12.9453 20H11.6394C11.5183 19.9369 11.1569 19.848 11.0072 19.7884C10.619 19.6334 10.2756 19.502 9.86963 19.3982C9.04202 19.1867 8.26462 19.2666 7.4619 19.5306C7.27446 19.5922 7.02229 19.6932 6.83764 19.7648C6.70942 19.8145 6.25676 19.947 6.17014 20H4.76825C4.64316 19.9231 4.45266 19.8477 4.314 19.7681C3.79963 19.4731 3.37136 19.0216 2.99305 18.5746C1.75386 17.1201 0.858118 15.4049 0.372378 13.5565C0.249885 13.0975 0.155468 12.6314 0.0896529 12.161C0.0629242 11.9767 0.0503094 11.6183 0 11.4596V10.1742Z" fill="#414141"/>
  <path d="M11.9931 0H12.7288C12.869 1.33761 12.2212 2.60776 11.2847 3.52161C10.6436 4.14726 9.90506 4.58957 8.99953 4.67668C8.83941 4.69208 8.66705 4.68601 8.506 4.68467C8.36995 2.9192 9.42348 1.21212 10.9832 0.419272C11.1581 0.329578 11.3378 0.249492 11.5214 0.179369C11.6338 0.137503 11.9043 0.0582711 11.9931 0Z" fill="#414141"/>
</svg>
