<svg preserveAspectRatio="none" width="100%" height="100%" overflow="visible" style="display: block;" viewBox="0 0 20 20" fill="none" xmlns="http://www.w3.org/2000/svg">
<g id="apple">
<g id="Vector">
<path d="M1.5 10.1742C1.50152 10.1697 1.50304 10.1652 1.50456 10.1607C1.55569 9.73992 1.61566 9.34892 1.71066 8.93433C2.28045 6.44772 4.52212 4.50063 7.14662 4.76757C7.43157 4.79656 7.73362 4.89746 8.01047 4.97302C8.48702 5.10179 9.69402 5.63588 10.1336 5.61565C10.8883 5.52262 11.6174 5.12772 12.3485 4.92958C12.7532 4.81988 13.2009 4.70135 13.6134 4.68767C15.2952 4.63189 16.9898 5.31608 17.9614 6.70784C16.9198 7.34111 16.1236 8.20515 15.833 9.42113C15.3162 11.5835 16.3281 13.6909 18.3386 14.6316C18.3851 14.6533 18.4582 14.6863 18.5 14.7137V14.7299C18.4465 14.8001 18.2551 15.362 18.2013 15.4937C18.1052 15.7223 18.0018 15.9479 17.8914 16.17C17.4326 17.1018 16.8212 17.9797 16.1501 18.7709C15.7174 19.2812 15.1928 19.7334 14.5527 19.9522C14.5273 19.9608 14.4656 19.9849 14.4453 20H13.1394C13.0183 19.9369 12.6569 19.848 12.5072 19.7884C12.119 19.6334 11.7756 19.502 11.3696 19.3982C10.542 19.1867 9.76462 19.2666 8.9619 19.5306C8.77446 19.5922 8.5223 19.6932 8.33764 19.7648C8.20942 19.8145 7.75676 19.947 7.67014 20H6.26825C6.14316 19.9231 5.95266 19.8477 5.814 19.7681C5.29963 19.4731 4.87136 19.0216 4.49305 18.5746C3.25386 17.1201 2.35812 15.4049 1.87238 13.5565C1.74989 13.0975 1.65547 12.6314 1.58965 12.161C1.56292 11.9767 1.55031 11.6183 1.5 11.4596V10.1742Z" fill="var(--fill-0, #DEDEDE)"/>
<path d="M13.4931 0H14.2288C14.369 1.33761 13.7212 2.60776 12.7847 3.52161C12.1436 4.14726 11.4051 4.58957 10.4995 4.67668C10.3394 4.69208 10.167 4.68601 10.006 4.68467C9.86995 2.9192 10.9235 1.21212 12.4832 0.419272C12.6581 0.329578 12.8378 0.249492 13.0214 0.179369C13.1338 0.137503 13.4043 0.0582711 13.4931 0Z" fill="var(--fill-0, #DEDEDE)"/>
</g>
</g>
</svg>
