<svg    overflow="visible"  viewBox="0 0 11.4609 13.3066" fill="none" xmlns="http://www.w3.org/2000/svg">
<path id="&#226;&#134;&#147;" d="M11.4609 7.57617L5.73047 13.3066L0 7.57617L0.984375 6.5918L2.83008 8.44629C3.19922 8.81543 3.57422 9.20215 3.95508 9.60645C4.3418 10.0107 4.71387 10.4062 5.07129 10.793C5.05957 10.5234 5.04785 10.2539 5.03613 9.98438C5.03027 9.71484 5.02734 9.44531 5.02734 9.17578V0H6.43359V9.17578C6.43359 9.44531 6.42773 9.71484 6.41602 9.98438C6.41016 10.2539 6.40137 10.5234 6.38965 10.793C6.74707 10.4062 7.11621 10.0107 7.49707 9.60645C7.88379 9.20215 8.26172 8.81543 8.63086 8.44629L10.4766 6.5918L11.4609 7.57617Z" fill="currentColor"/>
</svg>
