<svg    overflow="visible"  viewBox="0 0 13.1484 11.4609" fill="none" xmlns="http://www.w3.org/2000/svg">
<path id="&#226;&#134;&#146;" d="M7.41797 11.4609L6.43359 10.4766L8.28809 8.63086C8.65723 8.26172 9.04395 7.88672 9.44824 7.50586C9.85254 7.11914 10.248 6.74707 10.6348 6.38965C10.3652 6.40137 10.0957 6.41309 9.82617 6.4248C9.55664 6.43066 9.28711 6.43359 9.01758 6.43359H0V5.02734H9.01758C9.28711 5.02734 9.55664 5.0332 9.82617 5.04492C10.0957 5.05078 10.3652 5.05957 10.6348 5.07129C10.248 4.71387 9.85254 4.34473 9.44824 3.96387C9.04395 3.57715 8.65723 3.19922 8.28809 2.83008L6.43359 0.984375L7.41797 0L13.1484 5.73047L7.41797 11.4609Z" fill="currentColor"/>
</svg>
