<svg    overflow="visible"  viewBox="0 0 29.7578 24.8646" fill="none" xmlns="http://www.w3.org/2000/svg">
<path id="Vector" fill-rule="evenodd" clip-rule="evenodd" d="M2.9388 0.00912983C6.65772 0.0837325 9.55092 0.592764 11.6927 1.6159C13.07 2.27396 14.1247 3.14303 14.8802 4.20835C15.6356 3.14319 16.6893 2.27391 18.0664 1.6159C20.3509 0.52445 23.4909 0.0183433 27.5755 1.52441e-05L27.7904 0.0104319C27.9329 0.0239777 28.0739 0.0512287 28.2109 0.0924632L28.4128 0.164078L28.6068 0.255224C28.7329 0.322417 28.8517 0.402908 28.9622 0.493505L29.1211 0.636734L29.2656 0.795588C29.3563 0.906176 29.4354 1.02614 29.5026 1.15236L29.5937 1.34637L29.6667 1.54819C29.7278 1.75168 29.7581 1.9639 29.7578 2.1771L29.7565 19.0534L29.7461 19.2682C29.6967 19.7667 29.4757 20.2351 29.1185 20.5925C28.7102 21.0007 28.1568 21.2305 27.5794 21.2305C19.8357 21.2305 17.319 22.5359 15.8164 24.4141C15.5887 24.6987 15.2434 24.8645 14.8789 24.8646C14.5143 24.8645 14.1691 24.6976 13.9414 24.4128C12.4495 22.5464 9.91995 21.2305 2.17708 21.2305C1.52228 21.2304 0.945161 20.9517 0.549479 20.487C0.216472 20.0957 0.0463835 19.6163 0.00911458 19.1393L0 18.9362L0.00260417 2.1771C0.00222544 1.89231 0.0569349 1.60974 0.165365 1.34637L0.257812 1.15236C0.358561 0.963299 0.485992 0.788782 0.638021 0.636734L0.798177 0.493505C0.963842 0.357758 1.1489 0.245966 1.34766 0.164078L1.54948 0.0924632C1.75471 0.0307605 1.9685 -0.000795737 2.18359 1.52441e-05L2.9388 0.00912983ZM2.40104 18.832C8.03041 18.85 11.4093 19.5498 13.6784 20.9896V7.22397C13.2638 5.72541 12.3522 4.59035 10.6589 3.78127C8.88066 2.93172 6.22756 2.43784 2.40104 2.40236V18.832ZM27.3568 2.40236C23.5316 2.43801 20.8794 2.93194 19.1016 3.78127C17.4073 4.59073 16.4924 5.72563 16.0781 7.22528V20.9883C18.3485 19.5447 21.7226 18.8498 27.3568 18.832V2.40236Z" fill="#E20349"/>
</svg>
