<svg    overflow="visible"  viewBox="0 0 25.1276 27.0013" fill="none" xmlns="http://www.w3.org/2000/svg">
<path id="Vector" fill-rule="evenodd" clip-rule="evenodd" d="M18.125 0C18.7506 0.000175587 19.2575 0.507223 19.2578 1.13281V1.89844C22.5493 2.19987 25.1276 4.96721 25.1276 8.33724V20.5339C25.1273 24.105 22.2314 27.0013 18.6602 27.0013H6.46615C2.89507 27.0011 0.000351732 24.1049 0 20.5339V8.33724C6.50276e-07 4.95811 2.59174 2.1847 5.89583 1.89583V1.13281C5.8961 0.507223 6.40304 0.000175589 7.02865 0C7.65441 -2.73528e-08 8.16119 0.507115 8.16146 1.13281V1.87109H16.9922V1.13281C16.9925 0.507115 17.4992 2.73528e-08 18.125 0ZM2.26562 9.98958V20.5339C2.26598 22.853 4.14692 24.7342 6.46615 24.7344H18.6602C20.9795 24.7344 22.8603 22.8532 22.8607 20.5339V9.98958H2.26562ZM8.16146 4.8724C8.16146 5.49832 7.65457 6.00651 7.02865 6.00651C6.40287 6.00633 5.89583 5.49821 5.89583 4.8724V4.17578C4.04725 4.42702 2.58117 5.88009 2.3112 7.72266H22.8164C22.5478 5.88887 21.0939 4.43988 19.2578 4.17839V4.8724C19.2578 5.49821 18.7508 6.00633 18.125 6.00651C17.4991 6.00651 16.9922 5.49832 16.9922 4.8724V4.13672H8.16146V4.8724Z" fill="#E20349"/>
</svg>
