<svg    overflow="visible"  viewBox="0 0 21.7542 23.3926" fill="none" xmlns="http://www.w3.org/2000/svg">
<g id="Vector">
<path d="M20.8678 8.63265C21.3572 8.63296 21.7541 9.02967 21.7542 9.51904V17.8509C21.754 20.9111 19.2727 23.3923 16.2126 23.3926H5.54281C2.48237 23.3926 0.00137024 20.9113 0.00113932 17.8509V9.51904C0.00128724 9.0296 0.39802 8.6328 0.887533 8.63265H20.8678Z" fill="white"/>
<path d="M15.7432 0C16.2261 0.000153764 16.6179 0.392067 16.6182 0.875V1.63721H17.3883C19.7992 1.6375 21.7531 3.59218 21.7531 6.00309C21.7527 6.49069 21.3577 6.88587 20.8701 6.88607H0.884115C0.396622 6.88584 0.00041546 6.49079 0 6.00309C0 3.59214 1.95499 1.63744 4.36589 1.63721H5.15885V0.875C5.15911 0.392067 5.5509 0.000153765 6.03385 0C6.51694 -2.11165e-08 6.90859 0.391972 6.90885 0.875V1.63721H14.8682V0.875C14.8684 0.391972 15.2601 2.11165e-08 15.7432 0Z" fill="white"/>
</g>
</svg>
