<svg xmlns="http://www.w3.org/2000/svg" width="16" height="17" viewBox="0 0 16 17" fill="none">
  <path fill-rule="evenodd" clip-rule="evenodd" d="M11.3281 0C11.7191 0.000109742 12.036 0.317014 12.0361 0.708008V1.18652C14.0933 1.37492 15.7048 3.10451 15.7048 5.21077V12.8337C15.7045 15.0656 13.8946 16.8758 11.6626 16.8758H4.04134C1.80942 16.8757 0.000219833 15.0656 0 12.8337V5.21077C4.06422e-07 3.09882 1.61984 1.36544 3.6849 1.1849V0.708008C3.68506 0.317014 4.0019 0.000109743 4.3929 0C4.784 -1.70955e-08 5.10075 0.316947 5.10091 0.708008V1.16943H10.6201V0.708008C10.6203 0.316947 10.937 1.70955e-08 11.3281 0ZM1.41602 6.24349V12.8337C1.41624 14.2832 2.59182 15.4589 4.04134 15.459H11.6626C13.1122 15.459 14.2877 14.2832 14.2879 12.8337V6.24349H1.41602ZM5.10091 3.04525C5.10091 3.43645 4.78411 3.75407 4.3929 3.75407C4.0018 3.75396 3.6849 3.43638 3.6849 3.04525V2.60986C2.52953 2.76689 1.61323 3.67506 1.4445 4.82666H14.2603C14.0924 3.68055 13.1837 2.77492 12.0361 2.61149V3.04525C12.0361 3.43638 11.7192 3.75396 11.3281 3.75407C10.9369 3.75407 10.6201 3.43645 10.6201 3.04525V2.58545H5.10091V3.04525Z" fill="white"/>
</svg>
