<svg xmlns="http://www.w3.org/2000/svg" width="19" height="19" viewBox="0 0 19 19" fill="none">
  <path d="M9.01937 7.30062C9.40767 7.30062 9.72719 7.59547 9.76562 7.97363L9.76969 8.05013V15.7666L10.8936 14.6427L10.9505 14.5915C11.245 14.3512 11.6793 14.3684 11.9539 14.6427C12.2284 14.9172 12.246 15.3516 12.006 15.6462L11.9539 15.7031L9.55078 18.1079C9.25804 18.4005 8.78328 18.4003 8.4904 18.1079L6.0848 15.7031C5.79249 15.4103 5.7924 14.9355 6.0848 14.6427C6.37762 14.3499 6.85309 14.3501 7.146 14.6427L8.26986 15.7666V8.05013L8.27311 7.97363C8.31148 7.59565 8.63134 7.30096 9.01937 7.30062Z" fill="#414141"/>
  <path d="M9.021 0C11.786 0.000229876 14.0957 1.95443 14.6452 5.03581C15.3323 5.15835 16.0475 5.42952 16.6479 5.88867C17.4576 6.50792 18.0403 7.45922 18.0404 8.7443C18.0404 9.99357 17.5655 10.9771 16.7456 11.63C15.9501 12.2633 14.9056 12.5267 13.8452 12.5269H11.8734C11.4593 12.5269 11.1233 12.1913 11.123 11.7773C11.123 11.3632 11.4592 11.027 11.8734 11.027H13.8452C14.6793 11.0269 15.3581 10.8174 15.8114 10.4565C16.2402 10.115 16.5405 9.58137 16.5405 8.7443C16.5404 7.96872 16.21 7.44224 15.7365 7.08008C15.2387 6.69951 14.566 6.49326 13.9437 6.46077C13.6199 6.44386 13.3497 6.22256 13.2625 5.92041L13.2365 5.78613C12.964 3.04312 11.11 1.50089 9.021 1.50065C7.04406 1.50065 5.75586 2.87253 5.32796 4.27653C5.23983 4.56587 4.98598 4.77441 4.68506 4.80469C3.77713 4.89548 2.97486 5.22186 2.4113 5.73568C1.86231 6.23643 1.50152 6.94773 1.50146 7.91748C1.50147 9.71101 2.95638 11.027 4.88607 11.027H6.3737C6.78768 11.0272 7.12321 11.3633 7.12321 11.7773C7.12299 12.1912 6.78754 12.5266 6.3737 12.5269H4.88607C2.26739 12.5269 9.1521e-06 10.6723 0 7.91748C5.23275e-05 6.53027 0.536144 5.41507 1.39974 4.62728C2.1315 3.95995 3.07039 3.55223 4.05762 3.37809C4.76462 1.64549 6.46941 0 9.021 0Z" fill="#414141"/>
</svg>
