<svg    overflow="visible"  viewBox="0 0 26.5339 16.5339" fill="none" xmlns="http://www.w3.org/2000/svg">
<g id="Vector">
<path d="M24.9336 0L25.0977 0.00911458C25.9042 0.091294 26.5339 0.772014 26.5339 1.60026C26.5339 2.42851 25.9042 3.10923 25.0977 3.19141L24.9336 3.20052H1.60026C0.716605 3.20052 0 2.48392 0 1.60026C0 0.716605 0.716605 0 1.60026 0H24.9336Z" fill="#E20349"/>
<path d="M21.4336 6.66667L21.5977 6.67578C22.4042 6.75796 23.0339 7.43868 23.0339 8.26693C23.0339 9.09517 22.4042 9.77589 21.5977 9.85807L21.4336 9.86719H5.10026C4.2166 9.86719 3.5 9.15058 3.5 8.26693C3.5 7.38327 4.2166 6.66667 5.10026 6.66667H21.4336Z" fill="#E20349"/>
<path d="M17.9336 13.3333L18.0977 13.3424C18.9042 13.4246 19.5339 14.1053 19.5339 14.9336C19.5339 15.7618 18.9042 16.4426 18.0977 16.5247L17.9336 16.5339H8.60026C7.7166 16.5339 7 15.8172 7 14.9336C7 14.0499 7.7166 13.3333 8.60026 13.3333H17.9336Z" fill="#E20349"/>
</g>
</svg>
