<svg xmlns="http://www.w3.org/2000/svg" width="20" height="20" viewBox="0 0 20 20" fill="none">
  <path d="M5.36969 1.19715L5.37383 1.23226C5.2255 1.34583 4.79738 1.50921 4.74595 1.63244C4.76951 1.67113 4.80914 1.65973 4.81867 1.67126C5.38856 2.36115 6.01828 2.96262 6.72318 3.51999C6.90938 3.66722 7.76997 4.21864 7.75072 4.41508L7.72281 4.4509C7.86636 4.45483 7.93384 4.32 8.06167 4.36573C6.73287 4.95604 6.00346 5.56651 5.1626 6.71451C4.05923 8.55659 3.83179 10.4992 4.72534 12.4918C5.07781 13.171 5.45746 13.7667 6.01614 14.3046C6.06183 14.3486 6.12075 14.4077 6.16238 14.4549C6.30153 14.5589 6.44821 14.6888 6.58185 14.8023C6.23099 14.9145 5.78608 14.9963 5.42573 15.1216C5.29459 15.1672 5.03497 15.3211 4.93492 15.3367C4.86246 15.6608 4.46912 16.2162 4.29743 16.5323C4.16227 16.7812 3.83459 17.4142 3.64949 17.5708L3.6378 17.6221C3.53485 17.5474 3.31285 17.3613 3.23418 17.2665C3.09426 17.168 2.83058 16.8915 2.70607 16.7577C2.03523 16.037 1.33991 15.0796 0.958401 14.1741C0.882614 14.063 0.735156 13.6961 0.684551 13.562C0.315202 12.5907 0.090919 11.5722 0.0186585 10.538C-0.113319 8.66533 0.463589 6.4335 1.47192 4.84445C1.6114 4.62467 1.84492 4.24244 2.01509 4.05105C2.66596 3.03748 4.27713 1.72321 5.36969 1.19715Z" fill="#414141"/>
  <path d="M5.36969 1.19715L5.37383 1.23226C5.2255 1.34583 4.79738 1.50921 4.74595 1.63244C4.76951 1.67113 4.80914 1.65973 4.81867 1.67126C5.38856 2.36115 6.01828 2.96262 6.72318 3.51999C6.90938 3.66722 7.76997 4.21864 7.75072 4.41508L7.72281 4.4509C7.86636 4.45483 7.93384 4.32 8.06167 4.36573C6.73287 4.95604 6.00346 5.56651 5.1626 6.71451L5.13279 6.71117C5.15422 6.57628 5.63307 6.03261 5.75427 5.89965C4.78671 5.4917 3.38322 4.07333 2.67702 3.3061C2.55229 3.44301 2.13195 4.00957 2.01509 4.05105C2.66596 3.03748 4.27713 1.72321 5.36969 1.19715Z" fill="#414141"/>
  <path d="M0.958401 14.1741C1.05189 14.2212 1.59081 15.397 1.82371 15.5949C2.02591 15.385 2.06854 15.281 2.23563 15.0953C2.72159 14.5447 3.31376 14.0938 3.97807 13.7685C4.17122 13.6722 4.36727 13.5816 4.56595 13.4968C4.70089 13.4396 4.96488 13.3403 5.07818 13.2653C5.07122 13.2018 4.77084 12.674 4.70708 12.53L4.72534 12.4918C5.07781 13.171 5.45746 13.7667 6.01614 14.3046C6.06183 14.3486 6.12075 14.4077 6.16238 14.4549C6.30153 14.5589 6.44821 14.6888 6.58185 14.8023C6.23099 14.9145 5.78608 14.9963 5.42573 15.1216C5.29459 15.1672 5.03497 15.3211 4.93492 15.3367C4.86246 15.6608 4.46912 16.2162 4.29743 16.5323C4.16227 16.7812 3.83459 17.4142 3.64949 17.5708L3.6378 17.6221C3.53485 17.5474 3.31285 17.3613 3.23418 17.2665C3.09426 17.168 2.83058 16.8915 2.70607 16.7577C2.03523 16.037 1.33991 15.0796 0.958401 14.1741Z" fill="#414141"/>
  <path d="M3.56337 15.9249C3.59964 15.816 3.95656 15.6983 4.00526 15.6358C4.49715 15.0044 5.21138 14.6404 5.96373 14.3939C6.0133 14.3776 6.07037 14.4456 6.16238 14.4549C6.30153 14.5589 6.44821 14.6888 6.58185 14.8023C6.23099 14.9145 5.78608 14.9963 5.42573 15.1216C5.29459 15.1672 5.03497 15.3211 4.93492 15.3367C4.86246 15.6608 4.46912 16.2162 4.29743 16.5323C4.16227 16.7812 3.83459 17.4142 3.64949 17.5708L3.6378 17.6221C3.53485 17.5474 3.31285 17.3613 3.23418 17.2665C3.1934 17.0537 2.99161 17.1085 2.97146 16.8982C3.03595 16.7723 3.05092 16.6591 3.09877 16.5254C3.18994 16.2704 3.38087 16.1162 3.56337 15.9249Z" fill="#414141"/>
  <path d="M10.2197 8.14046C10.9495 8.17 11.8351 8.14884 12.5761 8.14888L17.3306 8.14871C18.131 8.14858 19.0217 8.12811 19.8149 8.15147C19.9454 9.02861 20.0368 10.0069 19.9855 10.8987C19.8747 12.826 19.2476 14.8099 18.0741 16.3741C17.7992 16.7405 17.1928 17.4333 16.8283 17.6968L16.8073 17.6776C16.6798 17.7328 16.6379 17.8972 16.496 17.8545C16.4441 17.7955 16.4097 17.7397 16.3731 17.6709C16.0918 17.1429 15.7371 16.6749 15.3761 16.1974C15.1507 15.8936 14.9187 15.5946 14.6803 15.3006C14.5504 15.1436 14.2731 14.8882 14.1991 14.7392C14.3278 14.6168 14.7693 14.2632 14.7666 14.1007C15.2522 13.419 15.612 12.8269 15.7186 11.9797L10.2184 11.9785L10.2197 8.14046Z" fill="#414141"/>
  <path d="M14.7666 14.1007C14.7693 14.2632 14.3278 14.6168 14.1991 14.7392C14.2731 14.8882 14.5504 15.1436 14.6803 15.3006C14.9187 15.5946 15.1507 15.8936 15.3761 16.1974C15.7371 16.6749 16.0918 17.1429 16.3731 17.6709C16.4097 17.7397 16.4441 17.7955 16.496 17.8545C16.6379 17.8972 16.6798 17.7328 16.8073 17.6776L16.8283 17.6968C16.7186 17.8265 16.1801 18.236 16.0285 18.3198C15.7743 18.5282 15.3057 18.7728 15.0113 18.9188C13.2463 19.7748 11.2737 20.1336 9.31314 19.9555C8.11118 19.8501 6.45218 19.4283 5.40916 18.8078C4.88649 18.5629 4.07473 17.9867 3.6378 17.6221L3.64949 17.5708C3.83459 17.4142 4.16227 16.7812 4.29743 16.5323C4.46912 16.2162 4.86246 15.6608 4.93492 15.3367C5.03497 15.3211 5.29459 15.1672 5.42573 15.1216C5.78608 14.9963 6.23099 14.9145 6.58185 14.8023C6.97655 15.0976 7.33425 15.2792 7.76667 15.4974C9.61839 16.2725 11.5315 16.1597 13.323 15.2946C13.9723 14.8799 14.2503 14.6739 14.7666 14.1007Z" fill="#414141"/>
  <path d="M4.93492 15.3367C5.03497 15.3211 5.29459 15.1672 5.42573 15.1216C5.78608 14.9963 6.23099 14.9145 6.58185 14.8023C6.97655 15.0976 7.33425 15.2792 7.76667 15.4974C7.57743 15.5924 7.60692 15.694 7.483 15.8241C6.79507 16.5468 6.1682 17.3851 5.81976 18.3192C5.77682 18.4344 5.70104 18.7107 5.71738 18.8314L5.7574 18.895C5.63723 18.8746 5.61713 18.8701 5.5162 18.805L5.40916 18.8078C4.88649 18.5629 4.07473 17.9867 3.6378 17.6221L3.64949 17.5708C3.83459 17.4142 4.16227 16.7812 4.29743 16.5323C4.46912 16.2162 4.86246 15.6608 4.93492 15.3367Z" fill="#414141"/>
  <path d="M14.7666 14.1007C14.7693 14.2632 14.3278 14.6168 14.1991 14.7392C14.2731 14.8882 14.5504 15.1436 14.6803 15.3006C14.9187 15.5946 15.1507 15.8936 15.3761 16.1974C15.7371 16.6749 16.0918 17.1429 16.3731 17.6709C16.4097 17.7397 16.4441 17.7955 16.496 17.8545C16.6379 17.8972 16.6798 17.7328 16.8073 17.6776L16.8283 17.6968C16.7186 17.8265 16.1801 18.236 16.0285 18.3198C16.1116 18.1427 16.2867 18.1233 16.4114 17.9602C16.277 17.9458 16.2691 17.824 16.2054 17.7134C16.12 17.565 16.041 17.3837 15.9412 17.2454C15.4472 16.5615 14.962 15.8533 14.394 15.2266C14.2787 15.0993 14.1578 15.0044 14.068 14.8555L14.0629 14.847C13.8747 14.9866 13.5437 15.2571 13.323 15.2946C13.9723 14.8799 14.2503 14.6739 14.7666 14.1007Z" fill="#414141"/>
  <path d="M5.36969 1.19715C5.58108 1.05137 6.09488 0.840008 6.3404 0.742522C8.1258 0.038104 10.0746 -0.170459 11.9729 0.13972C13.8789 0.451642 15.6468 1.31364 17.0508 2.61561C16.7517 2.86399 16.4575 3.18724 16.1722 3.45731C15.4872 4.10559 14.8153 4.82046 14.1308 5.46285C13.3323 4.59246 11.7444 4.00118 10.569 3.9611C9.56836 3.92697 8.9838 4.03404 8.06167 4.36573C7.93384 4.32 7.86636 4.45483 7.72281 4.4509L7.75072 4.41508C7.76997 4.21864 6.90938 3.66722 6.72318 3.51999C6.01828 2.96262 5.38856 2.36115 4.81867 1.67126C4.80914 1.65973 4.76951 1.67113 4.74595 1.63244C4.79738 1.50921 5.2255 1.34583 5.37383 1.23226L5.36969 1.19715Z" fill="#414141"/>
</svg>
