<svg xmlns="http://www.w3.org/2000/svg" width="18" height="19" viewBox="0 0 18 19" fill="none">
  <path fill-rule="evenodd" clip-rule="evenodd" d="M8.02662 0.0663009C8.5782 -0.0371118 9.14739 -0.0194022 9.69328 0.118384L9.83 0.155819C10.509 0.361591 11.1018 0.794517 11.7213 1.23573L11.8287 1.31305L15.245 3.74306L15.3232 3.7984L15.6878 4.05963C16.0461 4.32165 16.3822 4.59409 16.6521 4.93691L16.7636 5.08583C17.0141 5.4377 17.2041 5.82947 17.3259 6.24387L17.3805 6.45465C17.4892 6.94761 17.4849 7.45786 17.4846 7.98622V13.044L17.4797 13.9424C17.4773 14.0817 17.4737 14.2161 17.4683 14.3445L17.4464 14.7131C17.4062 15.205 17.3154 15.7185 17.0606 16.2186C16.735 16.8575 16.2395 17.3927 15.6316 17.7657L15.3639 17.9154C14.9887 18.1065 14.6064 18.2054 14.231 18.2597L13.8583 18.3012C13.6246 18.3203 13.3666 18.3297 13.0877 18.3345L12.1892 18.3394C11.4789 18.3393 10.9026 17.7632 10.9026 17.0528V11.0087C10.9026 10.5299 10.9027 10.2154 10.8831 9.97515C10.8689 9.80195 10.8463 9.70414 10.8245 9.64312L10.8033 9.59267C10.7374 9.46352 10.6419 9.35166 10.5258 9.26715L10.4021 9.19146C10.3471 9.16356 10.2502 9.13137 10.0196 9.11252C9.77937 9.09292 9.46495 9.09218 8.98609 9.09218H8.51002C8.03109 9.09218 7.71675 9.09291 7.47649 9.11252C7.30319 9.12669 7.20552 9.14843 7.14446 9.1703L7.094 9.19146C6.96463 9.25738 6.85309 9.35344 6.76848 9.46978L6.6928 9.59267C6.66487 9.6476 6.63193 9.74434 6.61304 9.97515C6.59343 10.2154 6.59351 10.5299 6.59351 11.0087V17.0414C6.59351 17.7133 6.08253 18.2656 5.42815 18.3321L5.2955 18.3394C4.81768 18.3394 4.38087 18.3393 3.99504 18.3231L3.62639 18.3012C3.19586 18.266 2.74892 18.1926 2.30885 18.0041L2.12086 17.9154C1.39054 17.5432 0.79627 16.9496 0.42408 16.2195C0.233391 15.845 0.134393 15.4621 0.0798415 15.0866L0.0375238 14.7131C0.0184331 14.4792 0.0095597 14.2207 0.00497172 13.9416L8.89087e-05 13.044V7.98622C-0.000212535 7.38353 -0.0060349 6.8022 0.157967 6.24387L0.214119 6.06728C0.355691 5.65905 0.565235 5.27662 0.832608 4.93691L0.972582 4.77089C1.31146 4.39652 1.72997 4.10445 2.16073 3.7984L2.20631 3.76666C2.21974 3.75731 2.23004 3.74991 2.23967 3.74306L5.65601 1.31305L5.76344 1.23573L6.25579 0.889055C6.74612 0.55217 7.23869 0.258028 7.79143 0.118384L8.02662 0.0663009ZM9.32545 1.57265C8.99062 1.48819 8.64165 1.47751 8.30331 1.54091L8.15927 1.57265C7.85347 1.64986 7.55953 1.81645 7.1233 2.11464L6.6342 2.45807L6.52515 2.53538L3.10881 4.96539C3.09209 4.97728 3.07601 4.98905 3.06324 4.99794L3.02987 5.02073C2.55756 5.3563 2.28461 5.55627 2.08993 5.77105L2.01099 5.86464C1.87019 6.04355 1.75607 6.2419 1.67164 6.45221L1.59677 6.66705C1.50582 6.97681 1.50042 7.32323 1.50074 7.98622V13.044L1.50481 13.9172C1.50892 14.1722 1.51725 14.3945 1.53329 14.591L1.56422 14.8718C1.60244 15.1344 1.6634 15.3479 1.76034 15.5383L1.8523 15.7019C2.08115 16.075 2.40918 16.3793 2.8012 16.5792L2.89885 16.6247C3.13021 16.724 3.3988 16.7776 3.74846 16.8062L4.06422 16.8249C4.35314 16.8369 4.69075 16.8376 5.09286 16.8379V11.0087C5.09286 10.5546 5.09234 10.1685 5.11809 9.85308C5.1446 9.52895 5.20295 9.21298 5.35653 8.91152L5.45012 8.74469C5.6823 8.3664 6.01518 8.05782 6.41285 7.8552L6.52678 7.8023C6.79357 7.68796 7.07076 7.63994 7.35442 7.61676C7.66989 7.591 8.05586 7.59234 8.51002 7.59234H8.98609C9.4402 7.59234 9.82623 7.59102 10.1417 7.61676C10.4658 7.64324 10.7818 7.70168 11.0833 7.8552L11.2501 7.94879C11.6284 8.18091 11.9369 8.51388 12.1396 8.91152L12.1925 9.02545C12.3068 9.29217 12.3548 9.56949 12.378 9.85308C12.4038 10.1685 12.4032 10.5546 12.4032 11.0087V16.8379C12.9561 16.8374 13.3865 16.8348 13.7363 16.8062L14.017 16.7745C14.2803 16.7364 14.4934 16.676 14.6835 16.5792L14.8471 16.4872C15.2202 16.2583 15.5245 15.9304 15.7244 15.5383L15.7699 15.4406C15.8691 15.2094 15.922 14.9406 15.9506 14.591L15.9701 14.2761C15.9748 14.164 15.9778 14.0441 15.9799 13.9164L15.984 13.044V7.98622L15.9823 7.54433C15.9774 7.21841 15.9617 6.98805 15.9172 6.78586L15.8871 6.66705C15.8229 6.44841 15.728 6.23996 15.6056 6.04937L15.4737 5.86464C15.3239 5.67442 15.1293 5.51111 14.8137 5.27952L14.454 5.02073L14.3759 4.96539L10.9596 2.53538L10.8505 2.45807C10.211 2.00261 9.83545 1.74442 9.47844 1.61822L9.32545 1.57265Z" fill="white"/>
</svg>
