<svg xmlns="http://www.w3.org/2000/svg" width="17" height="17" viewBox="0 0 17 17" fill="none">
  <path fill-rule="evenodd" clip-rule="evenodd" d="M2.36985 6.05483C2.68897 5.79741 3.15689 5.81887 3.45068 6.11774C3.76391 6.43658 3.7605 6.9502 3.44326 7.26495L3.44243 7.26578L2.86616 7.82532C1.19978 9.47666 1.19961 12.1775 2.86616 13.8287C4.50189 15.4494 7.13164 15.4493 8.76742 13.8287L8.76824 13.8279L9.43933 13.174C9.75705 12.8604 10.268 12.8639 10.5812 13.1823C10.8945 13.5011 10.891 14.0147 10.5737 14.3295L9.90183 14.9842C7.63656 17.2278 3.99587 17.2275 1.73092 14.9834C-0.57692 12.6966 -0.577026 8.95653 1.73092 6.66983L1.73174 6.669L2.30802 6.10946L2.36985 6.05483Z" fill="#414141"/>
  <path fill-rule="evenodd" clip-rule="evenodd" d="M9.86308 5.67822C10.1808 5.36383 10.6932 5.36685 11.0066 5.68567C11.3196 6.00453 11.3155 6.51819 10.9983 6.83289L6.80445 10.9889C6.48677 11.3036 5.97449 11.3003 5.66097 10.9814C5.34749 10.6624 5.35073 10.1481 5.66839 9.83336L9.86308 5.67822Z" fill="#414141"/>
  <path fill-rule="evenodd" clip-rule="evenodd" d="M6.98088 1.47922C9.25592 -0.558682 12.7415 -0.490964 14.9358 1.68283C17.2437 3.96948 17.2435 7.70962 14.9358 9.99642L14.3587 10.5576C14.041 10.8714 13.5301 10.8678 13.2169 10.5493C12.9034 10.2304 12.9066 9.71605 13.2243 9.40129L13.8014 8.84093C15.4672 7.18951 15.467 4.48935 13.8006 2.83833C12.1649 1.2178 9.53591 1.21803 7.90012 2.83833L7.22821 3.49139C6.91051 3.80606 6.39903 3.80288 6.08555 3.48394C5.77238 3.16496 5.77621 2.65138 6.0938 2.33673L6.76488 1.68283L6.98088 1.47922Z" fill="#414141"/>
</svg>
