<svg    overflow="visible"  viewBox="0 0 23.0139 22.9272" fill="none" xmlns="http://www.w3.org/2000/svg">
<g id="Vector">
<path fill-rule="evenodd" clip-rule="evenodd" d="M3.26353 8.10439C3.90194 7.59079 4.83908 7.63523 5.4271 8.23085L5.53762 8.3539C6.01705 8.94983 6.01129 9.80607 5.52395 10.3956L5.41115 10.5163L4.71161 11.1931C2.7413 13.1375 2.74146 16.317 4.71161 18.2615L4.89504 18.4346C6.83725 20.1681 9.81304 20.1102 11.6865 18.2615L12.5114 17.4628L12.6356 17.3534C13.274 16.8396 14.211 16.882 14.7992 17.4776L14.9086 17.6018C15.3884 18.1977 15.3834 19.0538 14.896 19.6435L14.7844 19.7654L13.9595 20.564C10.8662 23.6166 5.95223 23.7117 2.74514 20.85L2.4398 20.564C-0.813239 17.3534 -0.813294 12.1023 2.4398 8.89166L3.14048 8.2149L3.26353 8.10439Z" fill="#E20349"/>
<path fill-rule="evenodd" clip-rule="evenodd" d="M9.36005 2.07737C12.5671 -0.784723 17.481 -0.689368 20.5744 2.36334L20.8695 2.66982C23.7288 5.79556 23.7287 10.6023 20.8695 13.7281L20.5744 14.0357L19.8737 14.7113C19.2382 15.3384 18.2144 15.3317 17.5871 14.6965C16.9603 14.0609 16.9666 13.037 17.6019 12.4099L18.3026 11.7331L18.4815 11.5486C20.2132 9.65564 20.2129 6.74471 18.4815 4.85162L18.3026 4.66477C16.4293 2.81633 13.4533 2.75866 11.5111 4.4916L11.3265 4.66477L10.5016 5.46344C9.90591 6.0511 8.96962 6.08195 8.33807 5.56028L8.21503 5.44863C7.58791 4.81314 7.5946 3.78929 8.22984 3.16201L9.05471 2.36334L9.36005 2.07737Z" fill="#E20349"/>
<path fill-rule="evenodd" clip-rule="evenodd" d="M13.252 7.48232C13.8905 6.96897 14.8265 7.01192 15.4144 7.60764L15.5249 7.73069C16.0043 8.3266 15.9985 9.18288 15.5113 9.77236L15.3996 9.89427L9.88642 15.3345C9.29035 15.9226 8.3533 15.9528 7.7217 15.4302L7.59979 15.3186C6.97292 14.6829 6.98025 13.6602 7.61574 13.0331L13.1278 7.59283L13.252 7.48232Z" fill="#E20349"/>
</g>
</svg>
