<svg    overflow="visible"  viewBox="0 0 23.6248 25.3299" fill="none" xmlns="http://www.w3.org/2000/svg">
<g id="Vector">
<path d="M11.8119 16.5951C14.4283 16.5951 16.9954 17.2662 19.1153 18.5312C21.1031 19.7176 22.6257 21.3867 23.4121 23.3437L23.5593 23.7383L23.5931 23.8568C23.732 24.4488 23.4031 25.0619 22.8158 25.2643C22.2285 25.4665 21.5918 25.186 21.3366 24.6341L21.291 24.5195L21.1856 24.2396C20.6233 22.841 19.4959 21.5533 17.8861 20.5924C16.1685 19.5674 14.0323 18.9961 11.8119 18.9961C9.59163 18.9962 7.4564 19.5675 5.73895 20.5924C4.02209 21.6172 2.85312 23.0133 2.334 24.5195C2.11818 25.146 1.43577 25.4799 0.809265 25.2643C0.18275 25.0484 -0.150077 24.3648 0.0657754 23.7383C0.798732 21.6112 2.38859 19.7966 4.50848 18.5312C6.62827 17.2662 9.19546 16.5952 11.8119 16.5951Z" fill="#E20349"/>
<path fill-rule="evenodd" clip-rule="evenodd" d="M11.8132 0C15.863 0.000333102 19.1465 3.28345 19.1465 7.33333C19.1465 11.3832 15.863 14.6663 11.8132 14.6667C7.76308 14.6667 4.47984 11.3834 4.47984 7.33333C4.47984 3.28324 7.76308 0 11.8132 0ZM11.8132 2.39974C9.08857 2.39974 6.87958 4.60873 6.87958 7.33333C6.87958 10.0579 9.08857 12.2669 11.8132 12.2669C14.5375 12.2666 16.7468 10.0577 16.7468 7.33333C16.7468 4.60893 14.5375 2.40007 11.8132 2.39974Z" fill="#E20349"/>
</g>
</svg>
