<svg    overflow="visible"  viewBox="0 0 25.663 25.6574" fill="none" xmlns="http://www.w3.org/2000/svg">
<path id="Vector" fill-rule="evenodd" clip-rule="evenodd" d="M10.9295 0C16.9648 0.000308129 21.8568 4.89307 21.8568 10.9284L21.8431 11.4901C21.7269 13.7845 20.9015 15.8908 19.5838 17.598L25.2531 23.2673C25.7996 23.8139 25.7996 24.7007 25.2531 25.2474C24.7064 25.7941 23.8197 25.794 23.273 25.2474L17.6037 19.5781C15.757 21.0051 13.4425 21.8568 10.9284 21.8568L10.3667 21.842C4.59261 21.5492 7.42196e-05 16.7752 0 10.9284L0.0148112 10.3656C0.298223 4.77782 4.77892 0.296919 10.3667 0.0136719L10.9295 0ZM2.80046 10.9284C2.80053 15.4172 6.43965 19.0559 10.9284 19.0563C15.4174 19.0563 19.0562 15.4174 19.0563 10.9284C19.0563 6.43928 15.4175 2.80046 10.9284 2.80046C6.43961 2.80084 2.80046 6.43952 2.80046 10.9284Z" fill="white"/>
</svg>
