<svg xmlns="http://www.w3.org/2000/svg" width="19" height="18" viewBox="0 0 19 18" fill="none">
  <path fill-rule="evenodd" clip-rule="evenodd" d="M9.16667 5.83601C10.7314 5.83601 12.0002 7.10497 12.0003 8.66967C12.0003 10.2345 10.7315 11.5033 9.16667 11.5033C7.60186 11.5033 6.33301 10.2345 6.33301 8.66967C6.33314 7.10497 7.60194 5.83601 9.16667 5.83601ZM9.16667 7.33666C8.43037 7.33666 7.83379 7.9334 7.83366 8.66967C7.83366 9.40605 8.43029 10.0027 9.16667 10.0027C9.90305 10.0027 10.4997 9.40605 10.4997 8.66967C10.4995 7.9334 9.90297 7.33666 9.16667 7.33666Z" fill="white"/>
  <path fill-rule="evenodd" clip-rule="evenodd" d="M12.0728 0.00430439C12.2153 0.0116656 12.3628 0.072702 12.6571 0.19392C13.4143 0.505937 14.1206 0.916597 14.7599 1.40974C15.0124 1.60448 15.139 1.70196 15.2165 1.82152C15.3191 1.97991 15.321 1.98483 15.3442 2.17227C15.3616 2.31393 15.2639 2.75704 15.07 3.64281L15.0382 3.82836C14.9833 4.26342 15.065 4.71972 15.3011 5.12882C15.5713 5.5964 15.9959 5.91964 16.473 6.0712C17.3386 6.34619 17.7718 6.48319 17.8857 6.56925C18.0366 6.68322 18.0401 6.68742 18.1258 6.8557C18.1906 6.98292 18.2116 7.14174 18.2536 7.45792C18.3062 7.85452 18.3333 8.25957 18.3333 8.67048L18.3285 8.97647C18.3183 9.28204 18.293 9.58417 18.2536 9.88142L18.1982 10.2525C18.1797 10.3473 18.1581 10.4185 18.1258 10.482L18.0729 10.5821C18.0288 10.6596 17.9988 10.683 17.8857 10.7685L17.828 10.8035C17.6571 10.8913 17.2309 11.0269 16.473 11.2681L16.2964 11.3332C15.8918 11.5033 15.5375 11.8028 15.3011 12.2121L15.2091 12.3896C15.0169 12.8105 14.9772 13.2683 15.0708 13.6957C15.2648 14.5815 15.3617 15.0247 15.3442 15.1663L15.3288 15.2777C15.3137 15.3657 15.2936 15.398 15.2165 15.517L15.1481 15.6041C15.0681 15.6911 14.9501 15.7827 14.7607 15.9288L14.5174 16.1103C13.9434 16.5238 13.3192 16.8722 12.6563 17.1454L12.3079 17.2829C12.2166 17.3142 12.144 17.3314 12.0728 17.335L11.9605 17.3391C11.9007 17.3394 11.8651 17.3329 11.8091 17.3122L11.7049 17.2699C11.6392 17.2421 11.5226 17.1515 11.3387 16.9916L10.5688 16.2966C10.2453 16.0013 9.82812 15.8068 9.36686 15.7628L9.16667 15.7538C8.62612 15.7539 8.13385 15.9598 7.76367 16.2974L6.993 16.9916C6.809 17.1514 6.69252 17.2421 6.62679 17.2699L6.52262 17.3122C6.46659 17.3329 6.43091 17.3394 6.37126 17.3391L6.25895 17.3342C6.18775 17.3305 6.11503 17.3142 6.02376 17.2829L5.67464 17.1454C5.01249 16.8724 4.38934 16.5241 3.81592 16.1111L3.57341 15.9296C3.38435 15.7837 3.26603 15.6926 3.18604 15.6057L3.11768 15.5178C3.04071 15.399 3.01963 15.367 3.00456 15.2794L2.98991 15.1671C2.98124 15.0963 3.0006 14.9502 3.04688 14.7113L3.26335 13.6965C3.37036 13.208 3.30264 12.6796 3.03304 12.2121C2.79655 11.8025 2.44186 11.5033 2.03695 11.3332L1.86117 11.2681C1.10239 11.0268 0.675474 10.8913 0.504557 10.8035L0.446777 10.7685C0.333849 10.6831 0.303717 10.6595 0.259603 10.5821L0.206706 10.482C0.174386 10.4185 0.152791 10.3472 0.134277 10.2525L0.0797526 9.88061C0.0405078 9.58352 0.0149384 9.28183 0.00488281 8.97647L0 8.67048C1.05986e-06 8.36222 0.0149305 8.05704 0.0447591 7.75658L0.0797526 7.4571C0.121639 7.14109 0.142684 6.98293 0.20752 6.8557C0.293363 6.68726 0.296792 6.68312 0.447591 6.56925C0.50459 6.52621 0.641668 6.47047 0.872396 6.39102L1.86117 6.07038C2.27873 5.93788 2.65607 5.67457 2.9248 5.29727L3.03304 5.12882C3.26933 4.71949 3.35105 4.26287 3.2959 3.82755L3.26335 3.64281C3.06927 2.75679 2.97259 2.31332 2.98991 2.17146C3.01314 1.98387 3.01486 1.97853 3.11768 1.8199C3.15645 1.76017 3.20762 1.7061 3.28044 1.64249L3.57422 1.40811C4.13308 0.9772 4.74338 0.610047 5.39388 0.315991L5.67464 0.19392C5.96902 0.0725853 6.11641 0.0124968 6.25895 0.00511819C6.44757 -0.00463726 6.45308 -0.00417876 6.62679 0.0694086C6.75821 0.125082 7.09316 0.431245 7.76286 1.04272C8.08397 1.33591 8.49744 1.53025 8.95426 1.57657L9.16667 1.58715C9.63968 1.5871 10.0755 1.42893 10.4248 1.16316L10.5688 1.04272C11.2376 0.431584 11.5725 0.125455 11.7041 0.0694086C11.8781 -0.00435101 11.884 -0.00541067 12.0728 0.00430439ZM11.5812 2.1503C10.9459 2.73082 10.0962 3.08688 9.16667 3.08699H9.12923L9.0918 3.08455L8.87939 3.07397L8.84115 3.07234L8.8029 3.06827C8.01468 2.98833 7.30288 2.65312 6.75212 2.1503C6.50469 1.92439 6.31136 1.75146 6.1613 1.61726C5.58965 1.86105 5.0532 2.17222 4.56217 2.54174C4.60329 2.73925 4.65709 2.99387 4.729 3.32218C4.90133 4.1093 4.80941 4.96034 4.41488 5.72615L4.33187 5.87833C3.86733 6.6828 3.13493 7.24005 2.31527 7.50024C1.99518 7.60179 1.74768 7.68218 1.55599 7.74519C1.51952 8.04799 1.49984 8.35697 1.49984 8.67048C1.49987 8.98309 1.519 9.29075 1.55518 9.59252C1.74712 9.65577 1.99441 9.73706 2.31527 9.8391C3.13497 10.0998 3.86743 10.6574 4.33187 11.4618L4.41488 11.614C4.80917 12.3796 4.90136 13.2303 4.729 14.0172C4.65723 14.3448 4.60327 14.5987 4.56217 14.796C5.05331 15.1658 5.58955 15.4773 6.1613 15.7213C6.31148 15.5871 6.50533 15.4149 6.75293 15.189C7.38859 14.6093 8.2379 14.2533 9.16667 14.2532L9.34001 14.2572C10.2011 14.2985 10.9847 14.6452 11.5804 15.189C11.8272 15.4144 12.0197 15.5872 12.1696 15.7213C12.7422 15.4771 13.2794 15.1656 13.7712 14.7952C13.7301 14.598 13.6769 14.3438 13.6051 14.0163C13.4215 13.1771 13.5385 12.2653 14.0023 11.4618L14.0926 11.3137C14.5586 10.5891 15.25 10.0836 16.0181 9.8391C16.3381 9.73721 16.5849 9.65573 16.7765 9.59252C16.8129 9.29057 16.8335 8.98303 16.8335 8.67048L16.8294 8.41251C16.822 8.18748 16.803 7.9653 16.7765 7.746C16.585 7.68298 16.3385 7.60178 16.0189 7.50024C15.2506 7.25617 14.5588 6.75124 14.0926 6.02644L14.0023 5.87833C13.5383 5.07443 13.4214 4.16174 13.6051 3.32218C13.6769 2.99419 13.7293 2.73991 13.7703 2.54255C13.279 2.17276 12.7425 1.86112 12.1704 1.61726C12.0205 1.75139 11.8282 1.92463 11.5812 2.1503Z" fill="white"/>
</svg>
