<svg    overflow="visible"  viewBox="0 0 29.2361 20.926" fill="none" xmlns="http://www.w3.org/2000/svg">
<g id="Vector">
<path d="M4.50096 3.8185C5.08998 3.62716 5.72444 3.62716 6.31346 3.8185L6.47101 3.87449C6.82699 4.01692 7.10362 4.22192 7.31867 4.40444C7.55011 4.60091 7.80251 4.85442 8.04784 5.09975L10.346 7.39792C10.9707 8.02271 10.9706 9.03612 10.346 9.66095C9.7212 10.2857 8.70781 10.2857 8.08299 9.66095L7.01008 8.58673V9.20261C7.01008 12.0321 7.48771 13.4001 8.23013 14.5112C9.025 15.7007 10.1545 16.6278 11.4762 17.1753C12.798 17.7227 14.2527 17.8658 15.6559 17.5867L15.8187 17.5633C16.6257 17.4866 17.3758 18.0323 17.5374 18.8445C17.7097 19.711 17.1472 20.5534 16.2809 20.726L15.9007 20.7938C13.9955 21.1 12.0397 20.8725 10.2523 20.1323C8.34564 19.3426 6.71522 18.0045 5.56867 16.2885C4.36978 14.4941 3.81086 12.4448 3.81086 9.20261V8.58152L2.73143 9.66095L2.61034 9.77032C1.9819 10.2831 1.05426 10.2468 0.46841 9.66095C-0.11731 9.07508 -0.153671 8.14741 0.359035 7.51902L0.46841 7.39792L2.76789 5.09975C3.01317 4.85446 3.26436 4.60088 3.49575 4.40444C3.71075 4.22195 3.98753 4.01693 4.34341 3.87449L4.50096 3.8185Z" fill="#E20349"/>
<path d="M13.3356 0.1323C15.2408 -0.173939 17.1965 0.0534594 18.984 0.793759C20.8906 1.58353 22.5211 2.92166 23.6676 4.63751C24.8663 6.43184 25.4254 8.48151 25.4254 11.7234V12.3432L26.5049 11.2638L26.626 11.1544C27.2543 10.6422 28.1822 10.6783 28.7679 11.2638C29.3535 11.8495 29.3895 12.7773 28.8773 13.4057L28.7679 13.5268L26.4684 15.825C26.2232 16.0702 25.9719 16.3239 25.7405 16.5203C25.5256 16.7028 25.2486 16.9078 24.8929 17.0503L24.7353 17.1063C24.1463 17.2976 23.5119 17.2976 22.9228 17.1063L22.7653 17.0503C22.4093 16.9078 22.1327 16.7029 21.9176 16.5203C21.6862 16.3238 21.4338 16.0703 21.1885 15.825L18.8903 13.5268C18.2657 12.902 18.2655 11.8886 18.8903 11.2638C19.5151 10.6396 20.5286 10.6394 21.1533 11.2638L22.2262 12.3367V11.7234C22.2262 8.89431 21.7484 7.52589 21.0062 6.41485C20.2114 5.22546 19.0817 4.29833 17.7601 3.75079C16.4382 3.20326 14.9837 3.06025 13.5804 3.33933L13.4176 3.36277C12.6107 3.43959 11.8607 2.89361 11.6989 2.08152C11.5266 1.21497 12.0889 0.372529 12.9554 0.200009L13.3356 0.1323Z" fill="#E20349"/>
</g>
</svg>
